{
  "asset": {
    "version": "2.0",
    "generator": "drone-navigation lightweight fleet model"
  },
  "extensionsUsed": ["KHR_materials_unlit"],
  "scene": 0,
  "scenes": [
    {
      "nodes": [0, 1, 2, 3, 4, 5, 6, 7, 8]
    }
  ],
  "nodes": [
    { "name": "body", "mesh": 0, "scale": [0.58, 0.78, 0.18] },
    { "name": "nose", "mesh": 1, "translation": [0, 0.72, 0.05], "scale": [0.2, 0.22, 0.13] },
    { "name": "arm-a", "mesh": 2, "scale": [1.35, 0.075, 0.055], "rotation": [0, 0, 0.3826834, 0.9238795] },
    { "name": "arm-b", "mesh": 2, "scale": [1.35, 0.075, 0.055], "rotation": [0, 0, -0.3826834, 0.9238795] },
    { "name": "rotor-fl", "mesh": 3, "translation": [-0.94, 0.94, 0.02], "scale": [0.32, 0.32, 0.035] },
    { "name": "rotor-fr", "mesh": 3, "translation": [0.94, 0.94, 0.02], "scale": [0.32, 0.32, 0.035] },
    { "name": "rotor-rl", "mesh": 3, "translation": [-0.94, -0.94, 0.02], "scale": [0.32, 0.32, 0.035] },
    { "name": "rotor-rr", "mesh": 3, "translation": [0.94, -0.94, 0.02], "scale": [0.32, 0.32, 0.035] },
    { "name": "camera", "mesh": 4, "translation": [0, 0.82, -0.14], "scale": [0.13, 0.14, 0.11] }
  ],
  "meshes": [
    { "name": "body", "primitives": [{ "attributes": { "POSITION": 0 }, "indices": 1, "material": 0 }] },
    { "name": "nose", "primitives": [{ "attributes": { "POSITION": 0 }, "indices": 1, "material": 1 }] },
    { "name": "arms", "primitives": [{ "attributes": { "POSITION": 0 }, "indices": 1, "material": 2 }] },
    { "name": "rotors", "primitives": [{ "attributes": { "POSITION": 0 }, "indices": 1, "material": 3 }] },
    { "name": "camera", "primitives": [{ "attributes": { "POSITION": 0 }, "indices": 1, "material": 4 }] }
  ],
  "materials": [
    {
      "name": "flight-cyan",
      "pbrMetallicRoughness": { "baseColorFactor": [0.08, 0.58, 0.82, 1], "metallicFactor": 0.25, "roughnessFactor": 0.55 },
      "extensions": { "KHR_materials_unlit": {} }
    },
    {
      "name": "nose-mint",
      "pbrMetallicRoughness": { "baseColorFactor": [0.35, 0.9, 0.72, 1], "metallicFactor": 0, "roughnessFactor": 0.6 },
      "extensions": { "KHR_materials_unlit": {} }
    },
    {
      "name": "arms",
      "pbrMetallicRoughness": { "baseColorFactor": [0.72, 0.84, 0.9, 1], "metallicFactor": 0.35, "roughnessFactor": 0.5 },
      "extensions": { "KHR_materials_unlit": {} }
    },
    {
      "name": "rotors",
      "pbrMetallicRoughness": { "baseColorFactor": [0.025, 0.055, 0.075, 1], "metallicFactor": 0.1, "roughnessFactor": 0.8 },
      "extensions": { "KHR_materials_unlit": {} }
    },
    {
      "name": "camera",
      "pbrMetallicRoughness": { "baseColorFactor": [0.95, 0.72, 0.2, 1], "metallicFactor": 0, "roughnessFactor": 0.45 },
      "extensions": { "KHR_materials_unlit": {} }
    }
  ],
  "accessors": [
    {
      "bufferView": 0,
      "byteOffset": 0,
      "componentType": 5126,
      "count": 8,
      "type": "VEC3",
      "min": [-0.5, -0.5, -0.5],
      "max": [0.5, 0.5, 0.5]
    },
    {
      "bufferView": 1,
      "byteOffset": 0,
      "componentType": 5123,
      "count": 36,
      "type": "SCALAR"
    }
  ],
  "bufferViews": [
    { "buffer": 0, "byteOffset": 0, "byteLength": 96, "target": 34962 },
    { "buffer": 0, "byteOffset": 96, "byteLength": 72, "target": 34963 }
  ],
  "buffers": [
    {
      "byteLength": 168,
      "uri": "data:application/octet-stream;base64,"
    }
  ]
}
